<svg xmlns="http://www.w3.org/2000/svg" viewBox="91.70 18.40 52.70 58.50"><path fill="currentColor" d="M97.63,47.03c-.32-1.15-.86-2.3-1.12-3.2-.11-.36-.11-.79-.11-1.3,0-.65.04-1.3.04-2.34,0-1.15.9-2.74,1.62-3.6.61-.72,1.37-1.04,2.27-1.04.18,0,.36,0,.54.04,1.12.14,2.23.29,3.02,1.01.76.68,1.22,1.66,1.22,2.88,0,1.58-1.58,2.56-2.41,2.63-.68,0-1.91-.32-2.3-1.15-.11-.22-.14-.43-.14-.58,0-.25.14-.36.32-.36.14,0,.29.07.47.18.5.4.79.72,1.26.83.07,0,.18.04.25.04.4,0,.79-.25,1.01-.72.14-.32.25-.79.25-1.3,0-.4-.07-.79-.29-1.15-.47-.79-1.01-1.44-1.73-1.44-.86.07-2.23.04-2.84.58-.61.54-1.12,1.26-1.22,1.94-.11.61-.4,1.26-.4,1.94,0,.11.04.18.04.29.04.25.14.32.29.32.22,0,.58-.18.94-.18.14,0,.29.04.43.11.76.43.94.9.94,1.94s.04,1.55.25,3.02c.22,1.48.54,2.56.72,2.7.18.14-.22-2.7.97-2.88.18-.04.4-.04.54-.04.79,0,1.15.4,1.51,1.51.43,1.33,0,1.62.79,2.63s.79,1.37,1.22,2.16c.43.79,1.08,1.73,1.62,2.16s1.98,1.37,2.7,1.76,1.87,1.84,3.17,2.16c1.3.32,3.02.86,3.89,1.98s1.04,1.69,1.22,2.38c.14.5.54.97.54,1.33,0,.11-.04.22-.14.29-.11.07-.25.11-.4.11-.43,0-.9-.29-.9-.29,0,0-.97,1.69-2.05,2.02-.36.11-.76.14-1.12.14-.72,0-1.37-.14-1.94-.32-.86-.25-1.48-1.04-1.73-1.91-.07-.25-.11-.54-.11-.83,0-.68.18-1.3.47-1.51.14-.11.4-.18.68-.18.43,0,.94.22,1.04.94,0,.11.04.22.04.32,0,.79-.58.9-.58,1.26,0,.04.04.07.04.11.14.5,1.08.97,2.05,1.04.76,0,1.33-.61,1.55-1.22.11-.36.25-.72.25-1.15,0-.36-.11-.76-.32-1.22-.5-1.04-1.33-1.94-2.27-2.05-.58-.07-1.3-.29-1.98-.29-.43,0-.86.11-1.22.36-.97.68-1.76,1.12-2.16,2.16-.18.5-.32,1.15-.32,1.87,0,.79.14,1.66.65,2.48.94,1.58,1.94,2.48,4.03,2.77.4.07.79.07,1.15.07,1.44,0,2.45-.4,3.17-.68.9-.36,1.08-.9,1.84-1.19s1.3-.86,1.91-1.69c.61-.83,2.38-2.56,3.92-3.1s3.56-1.51,4.43-1.73c.86-.22,2.27-.76,2.92-.86.76-.11,2.63-.43,4.28-.43,2.23,0,4.07.58,5.11.76.94.14,1.51.54,1.51.94,0,.07,0,.11-.04.18-.07.18-.32.25-.65.25-.4,0-.86-.07-1.3-.07-1.01,0-1.69.04-2.3.36-.61.32-1.8.83-2.81,1.37-.43,0-1.51.9-2.38.9-.18,0-.36-.04-.54-.11-.86-.32-1.44-.65-1.58-1.22,0-.76.65-1.73.68-1.73-.18,0-2.2.22-2.77,1.12-.61.97-.36.97-.58,1.76-.14.47-.32,1.15-.32,1.87,0,.47.11.97.32,1.4.58,1.08,1.55,2.77,3.71,3.6,1.3.5,2.16.65,2.84.65.43,0,.76-.07,1.08-.14.94-.18,1.94-.54,2.27-1.58.11-.4.18-.83.18-1.22,0-.61-.14-1.15-.36-1.44-.29-.4-1.12-.94-1.84-.94-.14,0-.25.04-.36.07-.76.25-1.22.07-1.48.68-.25.61-.11,1.76-.43,2.05-.04.04-.14.07-.22.07-.4,0-1.01-.54-1.01-1.19,0-1.15.07-1.76.65-2.09.61-.32,1.4-.68,2.2-.68.22,0,.4,0,.58.07.94.29,2.7.86,3.38,2.34.4.9.61,1.58.61,2.23,0,.43-.07.86-.29,1.37-.5,1.22-1.69,2.05-3.1,2.05-1.51,0-3.17-.5-3.17-.5,0,0-.04,1.62-1.44,1.8-.11,0-.22.04-.29.04-.54,0-.72-.25-.72-.58s.18-.72.29-.94c.07-.11.11-.22.11-.36,0-.43-.36-.94-.9-1.26-.68-.43-1.33-.65-2.09-1.4s-1.69-2.56-1.8-2.66c-.07-.07-.5-1.55-.5-2.34,0-.18.04-.32.07-.4.25-.5.61-1.91.61-1.91,0,0-1.94.54-3.31,1.76-1.37,1.22-1.73,1.73-2.16,3.02-.25.79-.36,1.15-.36,1.58,0,.29.04.54.11,1.01.18,1.15.54,2.3,1.48,2.74.65.29,1.37.5,1.98.5.25,0,.47-.04.68-.11.58-.25.83-.83.83-1.37,0-.29-.07-.54-.18-.72-.11-.14-.18-.18-.29-.18-.25,0-.47.36-.79.36-.4,0-.94-.58-.94-1.04.04-.36.72-.61,1.44-.61.47,0,.94.07,1.22.36.54.5.94,1.08.94,1.8,0,.25-.07.5-.14.79-.36,1.15-1.04,1.66-1.73,1.84-.32.07-.76.14-1.15.14-.43,0-.86-.07-1.08-.22-.43-.29-1.08-.29-1.51-.5-.43-.22-1.62-1.3-2.05-2.3.11,1.26.58,1.94.58,3.06,0,.25-.04.5-.07.79-.11.68-.68.94-1.37.94-.32,0-.65-.04-.97-.14-.72-.22-1.26-1.51-1.26-2.88,0-.61.11-1.22.36-1.76-.07,0-1.48,1.51-2.84,2.45-1.37.94-2.41,1.12-2.77,1.22-.07.04-.18.04-.29.04-.43,0-1.15-.14-1.73-.22-.76-.11-1.37-.36-1.62-.86-.07-.18-.11-.36-.11-.54,0-.36.14-.72.43-.94.43-.32,1.3-.83,2.09-.97.83-.18,2.63-.65,3.17-1.15-1.08.07-2.2.36-3.42.36-.58,0-1.19-.04-2.09-.07-2.16-.14-2.3-.5-3.31-.94-.97-.43-1.48-1.01-1.48-1.76,0-.54.83-.72,1.58-.86.14-.04.29-.04.43-.04.68,0,1.55.29,2.45.72-.72-.83-1.19-1.51-1.98-2.88-.29-.5-.43-1.15-.43-1.8,0-1.04.32-2.09.76-2.7.68-1.01.97-1.62,1.48-1.8.47-.14,1.62-.54,2.23-.54h.18c.07,0,.11,0,.11-.04,0-.22-1.04-.86-1.76-1.08-.94-.32-2.66-.86-3.89-.86s-2.99.11-3.92.32c-.94.22-1.8.47-2.41.65-.61.18-1.55,1.33-1.91,2.09-.14.29-.22.76-.22,1.3,0,.94.22,2.02.65,2.48.68.72,1.73.9,2.59.97,1.04,0,1.87-.29,2.23-.61.29-.25.5-.65.5-1.19,0-.25-.04-.5-.14-.79-.36-.97-.68-1.33-1.12-1.4-.14-.04-.36-.04-.54-.04-.32,0-.65.07-.68.4,0,.47.22.72.22,1.04,0,.07,0,.14-.04.25-.07.14-.18.22-.32.22-.32,0-.79-.32-.97-.76-.07-.14-.07-.29-.07-.47,0-.54.29-1.12.83-1.33.36-.14.72-.25,1.12-.25.43,0,.86.14,1.33.43.86.58,1.33,1.08,1.55,2.09.04.14.04.29.04.43,0,.97-.61,2.16-1.94,2.7-.65.25-1.26.4-1.87.4-.83,0-1.58-.25-2.3-.68-1.26-.76-1.12-.86-1.8-1.48-.68-.61-.9-2.34-.97-3.13,0-.97.54-2.34,1.76-3.13,1.3-.83,3.46-1.22,4.68-1.3,1.22-.07,1.76-.18,2.52-.18s3.13.47,3.2.54c-.4-.36-2.63-1.51-3.85-1.73-1.22-.22-1.69-.97-2.59-.97s-1.4-.18-2.09-.29-1.51-.18-2.41-.4-1.66-.47-2.34-.94c-.65-.43-1.19-.97-1.19-1.48.07-.65.5-1.3,1.62-1.3s2.84.29,3.78.86c.94.58,2.27,1.19,2.7,1.48-1.08-1.04-2.34-2.95-2.66-4.1ZM98.96,50.95c-1.01-.36-1.91-.76-2.84-1.01-.58,0-1.12-.36-1.69-.36-.18,0-.32.04-.47.11-.22.14-.36.36-.36.61,0,.29.18.58.65.86.94.54,2.56.94,3.74,1.01,1.19.07,1.87.18,2.52.47.65.29,2.05.68,2.05.68-1.4-.97-2.59-2.02-3.6-2.38ZM95.69,47.53c-.22.11-.5.25-.76.25-.29,0-.5-.14-.58-.54,0-.9.29-1.55.83-1.55.58,0,.83.61.83,1.04,0,.36-.14.68-.32.79ZM96.23,53.79c.4.04.54.47.54.9,0,.47-.18.9-.47.9-.58-.14-1.12-.29-1.12-.65,0-.07,0-.18.07-.29.29-.5.14-.86.72-.86h.25ZM100.8,50.59s-.32-.58-.86-1.62c-.54-1.04-.65-1.87-.86-2.77-.14-.58-.18-.9-.18-1.26,0-.22,0-.43.04-.76,0-.18.04-.32.04-.43,0-.47-.11-.65-.32-1.15-.11-.25-.25-.32-.4-.32-.25,0-.54.25-.58.5-.04.22-.07.65-.07,1.15s.04,1.04.18,1.4c.29.72.43,1.3.9,2.12.47.83.72,1.87,1.08,2.23.36.36,1.04.9,1.04.9ZM104.76,52.57c-.79-1.08-1.22-2.59-1.51-3.64s-.14-.94-.65-1.48c-.14-.14-.25-.22-.36-.22-.25,0-.36.43-.4.83,0,.72.18,1.62.47,2.12.32.54.68,1.4,1.19,1.87.5.47.5.86,1.01,1.51.5.65,1.98,1.33,2.59,1.66-.61-.5-1.55-1.58-2.34-2.66ZM104,33.31c0,.32-.11.61-.36.79-.36.29-.68.43-.94.43-.22,0-.4-.11-.54-.36-.11-.18-.14-.47-.14-.76,0-.65.25-1.4.94-1.4.61,0,1.04.68,1.04,1.3ZM104.47,44.62c0,.18-.04.36-.18.5-.29.32-.61.61-.86.61-.11,0-.22-.07-.29-.18-.25-.32-.5-.54-.5-.83,0-.07,0-.11.04-.18.47-.47.29-.79,1.04-.79.47.07.76.47.76.86ZM104.65,65.71c0,.32-.25.47-.47.47-.4-.07-.9-.25-.9-.58,0-.04,0-.11.04-.14.11-.25.43-.61.72-.61.14,0,.29.11.43.32.11.22.18.4.18.54ZM105.44,58.76c0,.54-.29,1.08-.61,1.08-.61-.18-1.37-.43-1.37-.9.07-.54.4-1.22,1.01-1.22.14,0,.29.04.47.11.36.18.5.54.5.94ZM109.65,69.16c-.9-.32-2.34-.83-3.24-1.08-.22-.07-.43-.11-.65-.11-.61,0-1.04.25-1.08.58,0,.43.43.68.94,1.08.47.36,1.87.76,2.81.76,1.73,0,2.74-.04,3.17-.07.61-.07,2.12-.22,2.34-.29-.68-.07-3.38-.54-4.28-.86ZM143.2,37.6c.32,0,.61-.04.76-.04v1.8c-.4-.04-.72-.07-1.01-.07-.76,0-1.19.14-1.33.14-.22,0-1.48.07-1.66.07-.22,0-.83-.07-1.22-.07-.43,0-.97,0-1.22.07-.07.04-.22.04-.4.04-.32,0-.76-.04-1.19-.11-.22-.04-.4-.04-.54-.04-.32,0-.65.04-1.22.07-.86.04-1.15.04-2.48.04s-2.27-.22-2.74-.22c-2.27,0-2.99-.04-3.31-.04-1.58,0-8.06-1.84-9.03-1.84-.47,0-.79-.22-1.73-.58-.94-.36-3.78-1.01-4.93-1.69-1.12-.68-2.81-2.34-3.17-2.34-.14,0-.22.32-.22.86,0,2.99.68,5.83.68,8.71,0,.29,0,.54-.04.76-.07.72-.14,1.01-.14,1.37,0,.22.04.47.11.86.22,1.04,0,1.8.54,3.2s1.3,3.46,4.07,5.29c2.77,1.84,4.07,1.66,4.64,2.12.58.47,1.76.47,2.74.68.97.22,2.81.36,3.85.43.9.07,1.76.25,2.48.25,1.12,0,1.84.11,2.41.11.54,0,1.15-.18,1.87-.18.36,0,.76.07,1.55.07.18,0,1.44-.04,2.16-.04.65.04.97.04,1.22.04.18,0,.36,0,.5-.04.22,0,.4.04,2.12.04.58-.04.97-.11,1.4-.11.25.04.47.04.68.04h1.04c.61.04.83.04,1.15.14.07.04.18.04.25.04.22,0,.36-.07.61-.07.32,0,1.3,0,1.48-.04v1.8s-.65.11-1.12.11c-.11,0-.25-.04-.32-.04-.43-.07-.94,0-1.48-.18-.14-.04-.25-.07-.4-.07-.47,0-1.01.18-1.3.22-.47,0-.76-.14-.94-.14s-.18.14-.47.14-.83-.11-1.33-.11-1.69.07-2.12.07-1.3-.07-1.62-.11c-.47,0-1.08.11-1.55.11-.65,0-3.02.11-3.64.11-.54,0-1.01-.11-1.98-.11s-4.54-.36-6.44-.76c-1.84-.4-2.27-.72-2.63-.72-1.04,0-1.94-.4-2.48-.68-.68-.36-2.09-1.01-3.92-2.27-1.69-1.19-2.41-2.34-3.06-3.38-.83-1.37-.47-1.69-.76-2.09-.29-.4-.58-1.55-.68-3.89-.11-2.34-.18-2.95-.18-4.07,0-.79.22-.94.22-1.4,0-.18-.04-.43-.14-.79-.32-1.22-.43-3.67-.43-4.43s0-2.52-.07-3.38c0-.07-.04-.14-.04-.25-.04-.32-.07-.79-.07-1.3,0-1.26.29-2.81,1.73-3.38.9-.36,1.66-.5,2.41-.5,1.08,0,2.09.32,3.24.68,1.91.61,3.02,1.3,3.85,1.55.83.25,1.22.65,1.98.94.4.14.9.32,1.26.32.29,0,.54-.11.54-.54,0-1.15-1.01-4.25-1.01-5.04s-.29-1.94-.29-2.88.04-1.73.54-1.91c.07-.04.14-.04.22-.04.4,0,.65.4.65.83,0,.5.18,1.51.61,1.8.43.29,1.51,1.55,4.75,1.76,3.24.22,4.72.14,5.58.32.86.18,1.87.22,2.88.36,1.01.14,3.35.79,4.39,1.3s2.34,1.62,2.74,2.66c.4,1.04.86,1.87.86,3.24v4.54c0,.9.07,1.76.07,1.76.25.04.76.07,1.19.07ZM111.16,33.21c1.3.5,1.66,1.04,2.52,1.15.86.11,2.63,1.19,3.42,1.37s1.62.29,3.56.9,4.75.94,5.26.94c.4,0,.97-.04,1.69-.04,2.23,0,2.59.04,3.1.11.32.04.61.07.83.07,1.08,0,1.98-.07,2.84-.07.43,0,1.22-.07,1.91-.07.58,0,2.16-.04,3.31-.04.18-.61.25-3.64.25-4.82,0-1.04-.11-2.48-.25-2.48-.11,0-.83,2.02-1.66,2.48-1.04.61-2.59,1.44-4.14,1.44-1.76,0-4.57-.14-5.69-.65-1.12-.5-3.28-.61-4.43-.97s-2.92-1.08-4.07-1.37c-1.15-.29-1.3-.79-1.84-.79s-.86-.22-1.48-.54c-.61-.32-2.12-.83-3.31-1.19-1.19-.36-2.45-1.04-3.13-1.04s-1.76.14-2.27.58c-.25.22-.43.79-.43,1.44,0,.72.22,1.48.83,1.87,1.15.76,1.87,1.22,3.17,1.73ZM115.23,71.18c-.5.25-.86.25-2.02.72-1.15.47-1.51.5-2.45.58-.9.07-1.01.4-1.19.94,0,.11-.07.18-.07.29,0,.47.86.68,1.48.68.79,0,1.37-.18,1.91-.5.58-.36,1.15-.61,1.73-1.12.58-.5,2.16-1.91,2.63-3.02-.04.04-1.44,1.15-2.02,1.44ZM116.2,75.61c0,.22-.11.4-.4.5-.11.04-.25.07-.36.07-.47,0-.9-.32-.9-.58,0-.32.54-.79.94-.79.11,0,.25.04.36.14.25.22.36.43.36.65ZM119.33,69.27c-.07.07-1.15,2.05-1.15,3.06,0,.5-.04.9-.04,1.26s.04.68.11,1.12c.14.83.9,1.01,1.26,1.01.29,0,.4-.43.4-.97,0-.14-.04-.32-.04-.5-.07-.76-.29-1.12-.47-1.84-.18-.72-.18-1.22-.18-1.94,0-.43.07-.94.11-1.19ZM135.68,26.55c-1.4-.29-3.1-.9-4.25-.9s-2.38-.58-3.67-.58c-.54,0-1.01.04-1.44.04-.58,0-1.04-.04-1.58-.22-.94-.29-3.42-1.12-4.18-1.48-.04-.04-.07-.04-.11-.04-.11,0-.14.07-.14.22,0,.61.76,2.27.97,3.1.32,1.08.32,1.98.5,2.77.18.79,1.4,1.48,2.45,1.84,1.04.36,4.03.72,5.04.97.76.18,2.3.29,3.49.29.43,0,.79,0,1.08-.04,1.04-.11,2.12-.47,2.95-1.12.83-.65,1.33-1.66,1.33-2.95,0-1.37-1.04-1.62-2.45-1.91ZM122.11,61.46c0,.36-.14.65-.43.68-.11,0-.18.04-.29.04-.5,0-.83-.29-.9-.79v-.25c0-.47.14-.68.43-.79.18-.07.22-.11.29-.11s.14,0,.36.11c.32.11.54.65.54,1.12ZM125.35,60.6c0,.29-.32.61-.61.65-.22.04-.43.07-.61.07-.25,0-.43-.07-.43-.4,0-.47.18-.83.72-.83.14,0,.29.04.47.07.36.11.47.25.47.43ZM125.13,67.58c0,.36-.11.65-.25.65-.36-.04-1.01-.14-1.04-.5,0-.07-.04-.22-.04-.36,0-.4.11-.97.54-.97.07,0,.11,0,.18.04.43.11.61.68.61,1.15ZM130.06,73.45c0,.36-.25.58-.47.58-.25,0-.72-.32-.72-.54.07-.43.36-.76.65-.76.14,0,.29.07.43.32.07.14.11.29.11.4ZM131.61,65.92c0,.47-.32,1.04-.58,1.04-.04,0-.07,0-.11-.04-.25-.22-.79-.36-.79-.76,0-.07,0-.18.07-.29.22-.4.47-.68.76-.68.14,0,.32.07.47.25.11.11.18.29.18.47ZM138.59,60.56c-.61-.11-1.22-.22-1.76-.22-.25,0-.54.04-.76.07-.72.14-1.55.14-2.09.47-.54.32-1.26,1.08-1.26,1.51,0,.4.4.68.86.68.68-.07,1.73-.36,2.23-.68.5-.32,1.58-.9,2.27-1.01.68-.11,2.23-.4,2.81-.4-.4-.11-1.4-.25-2.3-.43ZM140.36,64.7c0,.25-.11.47-.4.47-.68,0-1.37-.5-1.37-.79,0-.32.43-.68.68-.68.11,0,.25.04.4.07.47.14.68.58.68.94Z"/></svg>